<svg xmlns="http://www.w3.org/2000/svg" viewBox="0 0 24 24" fill="#000000">
  <path d="M17.23,11.47L17.23,12.48L8.76,12.48Q8.81,14.48 9.84,15.57Q10.87,16.66 12.67,16.66L12.67,16.66Q14.7,16.66 16.4,15.33L16.4,15.33L16.4,17.13Q14.82,18.28 12.22,18.28L12.22,18.28Q9.67,18.28 8.22,16.65Q6.77,15.01 6.77,12.05L6.77,12.05Q6.77,9.25 8.36,7.48Q9.94,5.72 12.3,5.72L12.3,5.72Q14.65,5.72 15.94,7.24Q17.23,8.77 17.23,11.47L17.23,11.47M8.78,10.85L15.26,10.85Q15.25,9.19 14.46,8.26Q13.67,7.34 12.26,7.34L12.26,7.34Q10.9,7.34 9.96,8.31Q9.01,9.28 8.78,10.85L8.78,10.85"/>
</svg>
