<svg xmlns="http://www.w3.org/2000/svg" viewBox="0 0 24 24" fill="#000000">
  <path d="M10.92,18.13L10.92,19.82L2.5,19.82L2.5,3.92L10.57,3.92L10.57,5.6L4.36,5.6L4.36,10.89L10.1,10.89L10.1,12.57L4.36,12.57L4.36,18.13L10.92,18.13M21.48,17.56L21.48,19.29Q20.17,20.08 18.37,20.08L18.37,20.08Q15.95,20.08 14.46,18.5Q12.96,16.92 12.96,14.41L12.96,14.41Q12.96,11.6 14.57,9.9Q16.18,8.2 18.86,8.2L18.86,8.2Q20.36,8.2 21.5,8.75L21.5,8.75L21.5,10.61Q20.24,9.73 18.8,9.73L18.8,9.73Q17.05,9.73 15.94,10.97Q14.83,12.22 14.83,14.25L14.83,14.25Q14.83,16.25 15.87,17.4Q16.92,18.55 18.68,18.55L18.68,18.55Q20.17,18.55 21.48,17.56L21.48,17.56"/>
</svg>
