<svg xmlns="http://www.w3.org/2000/svg" viewBox="0 0 24 24" fill="#000000">
  <path d="M11.7,11.51L11.7,12.45L3.85,12.45Q3.89,14.3 4.85,15.31Q5.8,16.32 7.48,16.32L7.48,16.32Q9.35,16.32 10.93,15.09L10.93,15.09L10.93,16.76Q9.46,17.82 7.05,17.82L7.05,17.82Q4.69,17.82 3.35,16.31Q2,14.79 2,12.04L2,12.04Q2,9.45 3.47,7.81Q4.94,6.18 7.13,6.18L7.13,6.18Q9.31,6.18 10.51,7.59Q11.7,9 11.7,11.51L11.7,11.51M3.87,10.94L9.88,10.94Q9.87,9.39 9.13,8.53Q8.4,7.68 7.1,7.68L7.1,7.68Q5.83,7.68 4.95,8.58Q4.07,9.48 3.87,10.94L3.87,10.94M21.98,15.36L21.98,17.05Q20.7,17.82 18.94,17.82L18.94,17.82Q16.56,17.82 15.1,16.27Q13.63,14.73 13.63,12.26L13.63,12.26Q13.63,9.51 15.21,7.84Q16.79,6.18 19.41,6.18L19.41,6.18Q20.88,6.18 22,6.72L22,6.72L22,8.55Q20.76,7.68 19.35,7.68L19.35,7.68Q17.64,7.68 16.55,8.9Q15.46,10.12 15.46,12.11L15.46,12.11Q15.46,14.06 16.49,15.19Q17.51,16.32 19.24,16.32L19.24,16.32Q20.7,16.32 21.98,15.36L21.98,15.36"/>
</svg>
