<svg xmlns="http://www.w3.org/2000/svg" viewBox="0 0 24 24" fill="#000000">
  <path d="M3.58,17.57L3.58,17.57L3.58,15.5Q5.15,16.66 7.04,16.66L7.04,16.66Q9.57,16.66 9.57,14.98L9.57,14.98Q9.57,14.5 9.35,14.16Q9.13,13.83 8.77,13.57Q8.4,13.31 7.9,13.11Q7.4,12.9 6.83,12.68L6.83,12.68Q6.03,12.36 5.43,12.04Q4.82,11.72 4.42,11.31Q4.01,10.91 3.81,10.39Q3.6,9.88 3.6,9.19L3.6,9.19Q3.6,8.34 3.99,7.69Q4.38,7.04 5.02,6.6Q5.67,6.16 6.49,5.94Q7.32,5.72 8.2,5.72L8.2,5.72Q9.76,5.72 10.99,6.26L10.99,6.26L10.99,8.2Q9.66,7.34 7.94,7.34L7.94,7.34Q7.4,7.34 6.97,7.46Q6.53,7.58 6.22,7.8Q5.91,8.03 5.74,8.34Q5.57,8.65 5.57,9.02L5.57,9.02Q5.57,9.49 5.74,9.81Q5.91,10.13 6.24,10.37Q6.57,10.62 7.04,10.82Q7.51,11.02 8.1,11.25L8.1,11.25Q8.9,11.55 9.53,11.88Q10.17,12.2 10.61,12.6Q11.06,13.01 11.3,13.54Q11.54,14.06 11.54,14.79L11.54,14.79Q11.54,15.68 11.14,16.34Q10.75,16.99 10.1,17.43Q9.44,17.86 8.58,18.07Q7.73,18.28 6.79,18.28L6.79,18.28Q4.94,18.28 3.58,17.57M20.42,0.19L20.42,1.92Q19.86,1.61 19.14,1.61L19.14,1.61Q17.13,1.61 17.13,4.15L17.13,4.15L17.13,6L19.94,6L19.94,7.64L17.13,7.64L17.13,18L15.22,18L15.22,7.64L13.17,7.64L13.17,6L15.22,6L15.22,4.05Q15.22,2.17 16.31,1.07Q17.4,-0.02 19.03,-0.02L19.03,-0.02Q19.9,-0.02 20.42,0.19L20.42,0.19"/>
</svg>
