<svg xmlns="http://www.w3.org/2000/svg" viewBox="0 0 24 24" fill="#000000">
  <path d="M3.34,19.38L3.34,19.38L3.34,17.29Q3.7,17.61 4.2,17.86Q4.71,18.12 5.26,18.29Q5.82,18.46 6.38,18.56Q6.93,18.65 7.41,18.65L7.41,18.65Q9.05,18.65 9.86,18.05Q10.66,17.44 10.66,16.3L10.66,16.3Q10.66,15.69 10.39,15.23Q10.13,14.78 9.65,14.4Q9.17,14.03 8.52,13.68Q7.88,13.34 7.13,12.96L7.13,12.96Q6.33,12.56 5.65,12.15Q4.96,11.74 4.45,11.24Q3.95,10.74 3.65,10.11Q3.36,9.49 3.36,8.64L3.36,8.64Q3.36,7.61 3.82,6.84Q4.27,6.07 5.01,5.58Q5.75,5.08 6.7,4.84Q7.64,4.6 8.63,4.6L8.63,4.6Q10.86,4.6 11.89,5.13L11.89,5.13L11.89,7.13Q10.55,6.2 8.45,6.2L8.45,6.2Q7.86,6.2 7.28,6.32Q6.7,6.44 6.25,6.72Q5.79,6.99 5.51,7.43Q5.22,7.86 5.22,8.48L5.22,8.48Q5.22,9.06 5.44,9.49Q5.66,9.91 6.08,10.26Q6.5,10.61 7.11,10.93Q7.72,11.26 8.51,11.65L8.51,11.65Q9.32,12.05 10.05,12.5Q10.78,12.94 11.33,13.48Q11.88,14.02 12.2,14.67Q12.52,15.33 12.52,16.17L12.52,16.17Q12.52,17.29 12.08,18.07Q11.65,18.85 10.9,19.33Q10.16,19.82 9.18,20.03Q8.21,20.25 7.14,20.25L7.14,20.25Q6.78,20.25 6.25,20.19Q5.72,20.13 5.17,20.02Q4.62,19.91 4.13,19.75Q3.64,19.58 3.34,19.38M20.66,3.94L20.66,5.5Q20.15,5.22 19.51,5.22L19.51,5.22Q17.69,5.22 17.69,7.51L17.69,7.51L17.69,9.18L20.22,9.18L20.22,10.66L17.69,10.66L17.69,20L15.97,20L15.97,10.66L14.12,10.66L14.12,9.18L15.97,9.18L15.97,7.43Q15.97,5.73 16.95,4.74Q17.93,3.75 19.4,3.75L19.4,3.75Q20.19,3.75 20.66,3.94L20.66,3.94"/>
</svg>
