<svg xmlns="http://www.w3.org/2000/svg" viewBox="0 0 24 24" fill="#000000">
  <path d="M20.52,10.61L20.52,18L18.6,18L18.6,11.11Q18.6,9.12 17.98,8.23Q17.37,7.34 15.91,7.34L15.91,7.34Q14.68,7.34 13.82,8.46Q12.96,9.59 12.96,11.16L12.96,11.16L12.96,18L11.04,18L11.04,10.88Q11.04,7.34 8.31,7.34L8.31,7.34Q7.04,7.34 6.22,8.4Q5.4,9.46 5.4,11.16L5.4,11.16L5.4,18L3.48,18L3.48,6L5.4,6L5.4,7.9L5.45,7.9Q6.73,5.72 9.18,5.72L9.18,5.72Q10.41,5.72 11.32,6.4Q12.23,7.09 12.57,8.2L12.57,8.2Q13.91,5.72 16.56,5.72L16.56,5.72Q20.52,5.72 20.52,10.61L20.52,10.61"/>
</svg>
