<svg xmlns="http://www.w3.org/2000/svg" viewBox="0 0 24 24" fill="#000000">
  <path d="M8.45,16.27L8.45,16.27L8.4,16.27L8.4,23.52L6.48,23.52L6.48,6L8.4,6L8.4,8.11L8.45,8.11Q9.87,5.72 12.6,5.72L12.6,5.72Q14.92,5.72 16.22,7.33Q17.52,8.94 17.52,11.65L17.52,11.65Q17.52,14.66 16.05,16.47Q14.59,18.28 12.05,18.28L12.05,18.28Q9.71,18.28 8.45,16.27M8.4,11.43L8.4,11.43L8.4,13.1Q8.4,14.59 9.37,15.63Q10.34,16.66 11.82,16.66L11.82,16.66Q13.57,16.66 14.56,15.33Q15.55,13.99 15.55,11.61L15.55,11.61Q15.55,9.61 14.63,8.47Q13.7,7.34 12.12,7.34L12.12,7.34Q10.44,7.34 9.42,8.5Q8.4,9.67 8.4,11.43"/>
</svg>
