<svg xmlns="http://www.w3.org/2000/svg" viewBox="0 0 24 24" fill="#000000">
  <path d="M7.16,19.34L7.16,19.34L7.16,17.13Q7.54,17.47 8.07,17.73Q8.6,18 9.18,18.18Q9.77,18.37 10.36,18.47Q10.95,18.57 11.45,18.57L11.45,18.57Q13.17,18.57 14.03,17.93Q14.88,17.29 14.88,16.09L14.88,16.09Q14.88,15.44 14.59,14.96Q14.31,14.48 13.81,14.09Q13.31,13.69 12.62,13.33Q11.94,12.97 11.15,12.57L11.15,12.57Q10.31,12.14 9.59,11.71Q8.87,11.28 8.33,10.75Q7.8,10.23 7.49,9.57Q7.18,8.9 7.18,8.01L7.18,8.01Q7.18,6.92 7.66,6.12Q8.14,5.31 8.92,4.79Q9.7,4.26 10.7,4.01Q11.69,3.75 12.73,3.75L12.73,3.75Q15.09,3.75 16.17,4.32L16.17,4.32L16.17,6.42Q14.76,5.44 12.54,5.44L12.54,5.44Q11.93,5.44 11.32,5.57Q10.7,5.7 10.22,5.99Q9.75,6.28 9.44,6.73Q9.14,7.19 9.14,7.85L9.14,7.85Q9.14,8.46 9.37,8.9Q9.6,9.35 10.05,9.72Q10.49,10.09 11.13,10.43Q11.77,10.78 12.61,11.19L12.61,11.19Q13.46,11.61 14.23,12.08Q15,12.55 15.58,13.11Q16.16,13.68 16.5,14.37Q16.84,15.06 16.84,15.95L16.84,15.95Q16.84,17.13 16.38,17.95Q15.91,18.77 15.13,19.28Q14.34,19.79 13.32,20.02Q12.3,20.25 11.16,20.25L11.16,20.25Q10.78,20.25 10.22,20.19Q9.67,20.13 9.09,20.01Q8.51,19.89 7.99,19.72Q7.47,19.55 7.16,19.34"/>
</svg>
