<svg xmlns="http://www.w3.org/2000/svg" viewBox="0 0 24 24" fill="#000000">
  <path d="M8.02,17.57L8.02,17.57L8.02,15.5Q9.59,16.66 11.48,16.66L11.48,16.66Q14.01,16.66 14.01,14.98L14.01,14.98Q14.01,14.5 13.79,14.16Q13.58,13.83 13.21,13.57Q12.84,13.31 12.34,13.11Q11.84,12.9 11.27,12.68L11.27,12.68Q10.47,12.36 9.87,12.04Q9.26,11.72 8.86,11.31Q8.46,10.91 8.25,10.39Q8.04,9.88 8.04,9.19L8.04,9.19Q8.04,8.34 8.43,7.69Q8.82,7.04 9.46,6.6Q10.11,6.16 10.93,5.94Q11.76,5.72 12.64,5.72L12.64,5.72Q14.2,5.72 15.43,6.26L15.43,6.26L15.43,8.2Q14.1,7.34 12.38,7.34L12.38,7.34Q11.84,7.34 11.41,7.46Q10.97,7.58 10.66,7.8Q10.35,8.03 10.18,8.34Q10.01,8.65 10.01,9.02L10.01,9.02Q10.01,9.49 10.18,9.81Q10.35,10.13 10.68,10.37Q11.01,10.62 11.48,10.82Q11.95,11.02 12.54,11.25L12.54,11.25Q13.34,11.55 13.97,11.88Q14.61,12.2 15.05,12.6Q15.5,13.01 15.74,13.54Q15.98,14.06 15.98,14.79L15.98,14.79Q15.98,15.68 15.59,16.34Q15.19,16.99 14.54,17.43Q13.88,17.86 13.03,18.07Q12.17,18.28 11.23,18.28L11.23,18.28Q9.38,18.28 8.02,17.57"/>
</svg>
